G75*
%MOIN*%
%OFA0B0*%
%FSLAX25Y25*%
%IPPOS*%
%LPD*%
%AMOC8*
5,1,8,0,0,1.08239X$1,22.5*
%
%ADD10C,0.00000*%
%ADD11C,0.05550*%
%ADD12C,0.11620*%
%ADD13OC8,0.05600*%
%ADD14C,0.05600*%
%ADD15C,0.06337*%
%ADD16C,0.07800*%
%ADD17C,0.05600*%
D10*
X0006250Y0001800D02*
X0006250Y0198650D01*
X0203100Y0198650D01*
X0203100Y0001800D01*
X0006250Y0001800D01*
D11*
X0168809Y0165265D03*
X0173533Y0168414D03*
X0168809Y0171564D03*
X0173533Y0174713D03*
X0168809Y0177863D03*
X0149911Y0188414D03*
X0142037Y0188414D03*
X0134163Y0188414D03*
D12*
X0188888Y0185934D03*
X0188888Y0157194D03*
D13*
X0146250Y0151800D03*
X0131250Y0146800D03*
X0131250Y0156800D03*
X0116250Y0181800D03*
X0111250Y0189300D03*
X0106250Y0181800D03*
X0091250Y0181800D03*
X0091250Y0191800D03*
X0081250Y0191800D03*
X0081250Y0181800D03*
X0076250Y0166800D03*
X0066250Y0166800D03*
X0066250Y0186800D03*
X0026250Y0186800D03*
X0031250Y0116800D03*
X0031250Y0076800D03*
X0021250Y0031800D03*
X0061250Y0031800D03*
X0096250Y0011800D03*
X0136250Y0011800D03*
X0146250Y0011800D03*
X0156250Y0011800D03*
X0141250Y0021800D03*
X0141250Y0031800D03*
X0151250Y0076800D03*
D14*
X0121527Y0076682D02*
X0116327Y0076682D01*
X0116327Y0086682D02*
X0121527Y0086682D01*
X0121527Y0096682D02*
X0116327Y0096682D01*
X0116327Y0106682D02*
X0121527Y0106682D01*
X0121527Y0116682D02*
X0116327Y0116682D01*
X0116327Y0126682D02*
X0121527Y0126682D01*
X0121527Y0136682D02*
X0116327Y0136682D01*
X0116327Y0146682D02*
X0121527Y0146682D01*
X0121527Y0156682D02*
X0116327Y0156682D01*
X0091527Y0156682D02*
X0086327Y0156682D01*
X0086327Y0146682D02*
X0091527Y0146682D01*
X0091527Y0136682D02*
X0086327Y0136682D01*
X0086327Y0126682D02*
X0091527Y0126682D01*
X0091527Y0116682D02*
X0086327Y0116682D01*
X0086327Y0106682D02*
X0091527Y0106682D01*
X0091527Y0096682D02*
X0086327Y0096682D01*
X0086327Y0086682D02*
X0091527Y0086682D01*
X0091527Y0076682D02*
X0086327Y0076682D01*
X0086327Y0066682D02*
X0091527Y0066682D01*
X0091527Y0056682D02*
X0086327Y0056682D01*
X0086327Y0046682D02*
X0091527Y0046682D01*
X0091527Y0036682D02*
X0086327Y0036682D01*
X0086327Y0026682D02*
X0091527Y0026682D01*
X0116327Y0026682D02*
X0121527Y0026682D01*
X0121527Y0036682D02*
X0116327Y0036682D01*
X0116327Y0046682D02*
X0121527Y0046682D01*
X0121527Y0056682D02*
X0116327Y0056682D01*
X0116327Y0066682D02*
X0121527Y0066682D01*
D15*
X0126289Y0188414D03*
X0157785Y0188414D03*
D16*
X0198250Y0136800D03*
X0198250Y0126800D03*
X0198250Y0116800D03*
X0198250Y0106800D03*
X0198250Y0096800D03*
X0198250Y0086800D03*
X0198250Y0076800D03*
X0198250Y0066800D03*
X0086250Y0011800D03*
X0066250Y0011800D03*
X0046250Y0011800D03*
X0026250Y0011800D03*
X0011250Y0066800D03*
X0011250Y0076800D03*
X0011250Y0086800D03*
X0011250Y0096800D03*
X0011250Y0106800D03*
X0011250Y0116800D03*
X0011250Y0126800D03*
X0011250Y0136800D03*
X0011250Y0146800D03*
X0011250Y0156800D03*
X0011250Y0166800D03*
X0011250Y0176800D03*
X0011250Y0186800D03*
X0076250Y0086800D03*
X0076250Y0076800D03*
X0076250Y0066800D03*
D17*
X0131250Y0076800D03*
X0146250Y0171800D03*
M02*
