%
M48
M72
T01C0.02362
T02C0.03150
T03C0.03200
T04C0.03937
T05C0.04000
T06C0.07480
%
T01
X46250Y51800
X101250Y36800
X171250Y81800
X176250Y111800
X156250Y141800
X169664Y151439
X156250Y156800
X156250Y166800
X36250Y136800
X36250Y126800
T02
X134163Y188414
X142037Y188414
X149911Y188414
X168809Y177863
X173533Y174713
X168809Y171564
X173533Y168414
X168809Y165265
T03
X26250Y186800
X66250Y186800
X81250Y181800
X81250Y191800
X91250Y191800
X91250Y181800
X106250Y181800
X111250Y189300
X116250Y181800
X118927Y156682
X118927Y146682
X118927Y136682
X118927Y126682
X118927Y116682
X118927Y106682
X118927Y96682
X118927Y86682
X118927Y76682
X118927Y66682
X118927Y56682
X118927Y46682
X118927Y36682
X118927Y26682
X136250Y11800
X146250Y11800
X156250Y11800
X141250Y21800
X141250Y31800
X131250Y76800
X151250Y76800
X88927Y76682
X88927Y86682
X88927Y96682
X88927Y106682
X88927Y116682
X88927Y126682
X88927Y136682
X88927Y146682
X88927Y156682
X76250Y166800
X66250Y166800
X31250Y116800
X31250Y76800
X21250Y31800
X61250Y31800
X88927Y36682
X88927Y46682
X88927Y56682
X88927Y66682
X88927Y26682
X96250Y11800
X131250Y146800
X131250Y156800
X146250Y151800
X146250Y171800
T04
X126289Y188414
X157785Y188414
T05
X11250Y186800
X11250Y176800
X11250Y166800
X11250Y156800
X11250Y146800
X11250Y136800
X11250Y126800
X11250Y116800
X11250Y106800
X11250Y96800
X11250Y86800
X11250Y76800
X11250Y66800
X26250Y11800
X46250Y11800
X66250Y11800
X86250Y11800
X76250Y66800
X76250Y76800
X76250Y86800
X198250Y86800
X198250Y76800
X198250Y66800
X198250Y96800
X198250Y106800
X198250Y116800
X198250Y126800
X198250Y136800
T06
X188888Y185934
X188888Y157194
M30
